<svg width="542" height="218" viewBox="0 0 542 218" fill="none" xmlns="http://www.w3.org/2000/svg">
<circle cx="377.5" cy="106.5" r="106.5" fill="#57D0D6"/>
<path d="M31.8 82.5L51.9 148H42.7L38.4 132.8H14.3L10 148H1.3L21.3 82.5H31.8ZM26.4 90.3L16.4 125.2H36.3L26.4 90.3ZM78.3227 81.3C85.3227 81.3 90.656 82.7333 94.3227 85.6C97.9893 88.4667 99.8227 92.3667 99.8227 97.3V99.5C99.8227 106.5 96.756 111.333 90.6227 114C94.356 114.8 97.256 116.533 99.3227 119.2C101.456 121.8 102.523 125.033 102.523 128.9V131.1C102.523 136.633 100.556 141.033 96.6227 144.3C92.756 147.567 86.8893 149.2 79.0227 149.2C74.556 149.2 68.456 149 60.7227 148.6V81.7C66.856 81.4333 72.7227 81.3 78.3227 81.3ZM77.0227 88.6C74.6227 88.6 72.0227 88.7 69.2227 88.9V111.3H79.0227C83.0227 111.3 86.056 110.333 88.1227 108.4C90.256 106.467 91.3227 103.767 91.3227 100.3V98.6C91.3227 95.2667 90.1893 92.7667 87.9227 91.1C85.656 89.4333 82.0227 88.6 77.0227 88.6ZM69.2227 118.2V141.2C71.4227 141.4 73.2227 141.567 74.6227 141.7C76.0893 141.767 77.556 141.8 79.0227 141.8C84.156 141.8 87.9227 140.833 90.3227 138.9C92.7893 136.9 94.0227 134.133 94.0227 130.6V128.5C94.0227 121.633 89.2227 118.2 79.6227 118.2H69.2227ZM135.05 81.3C142.517 81.3 148.017 83.1667 151.55 86.9C155.083 90.6333 156.85 95.9333 156.85 102.8V127.7C156.85 134.567 155.083 139.867 151.55 143.6C148.017 147.333 142.517 149.2 135.05 149.2C127.583 149.2 122.083 147.333 118.55 143.6C115.017 139.867 113.25 134.567 113.25 127.7V102.8C113.25 95.9333 115.017 90.6333 118.55 86.9C122.083 83.1667 127.583 81.3 135.05 81.3ZM135.05 88.8C130.65 88.8 127.317 89.9 125.05 92.1C122.85 94.3 121.75 97.5333 121.75 101.8V128.6C121.75 132.867 122.85 136.133 125.05 138.4C127.317 140.6 130.65 141.7 135.05 141.7C139.45 141.7 142.75 140.6 144.95 138.4C147.217 136.133 148.35 132.867 148.35 128.6V101.9C148.35 97.6333 147.217 94.4 144.95 92.2C142.75 89.9333 139.45 88.8 135.05 88.8ZM213.702 82.5L194.002 148H182.802L163.702 82.5H172.702L188.402 139.8L204.702 82.5H213.702ZM257.039 82.5V90.2H231.039V110.9H255.039V118.5H231.039V140.3H257.039V148H222.539V82.5H257.039ZM331.643 127.3C331.643 134.367 329.843 139.8 326.243 143.6C322.643 147.333 317.343 149.2 310.343 149.2C303.41 149.2 298.11 147.367 294.443 143.7C290.843 140.033 289.043 134.633 289.043 127.5V82.5H297.543V128.6C297.543 132.867 298.643 136.133 300.843 138.4C303.11 140.6 306.276 141.7 310.343 141.7C314.476 141.7 317.643 140.6 319.843 138.4C322.043 136.133 323.143 132.867 323.143 128.6V82.5H331.643V127.3ZM363.06 81.3C366.66 81.3 371.36 81.8333 377.16 82.9L376.96 90.4C371.493 89.3333 366.86 88.8 363.06 88.8C359.193 88.8 356.393 89.5667 354.66 91.1C352.993 92.6333 352.16 94.9667 352.16 98.1V100.7C352.16 102.367 352.36 103.7 352.76 104.7C353.227 105.633 354.027 106.467 355.16 107.2C356.293 107.867 357.993 108.567 360.26 109.3L369.56 112.4C374.027 113.933 377.16 115.967 378.96 118.5C380.827 121.033 381.76 124.733 381.76 129.6V131.5C381.76 137.433 380.027 141.867 376.56 144.8C373.16 147.733 367.56 149.2 359.76 149.2C355.96 149.2 351.093 148.533 345.16 147.2L345.36 139.5C350.893 140.833 355.627 141.5 359.56 141.5C364.56 141.5 368.093 140.767 370.16 139.3C372.227 137.767 373.26 135.4 373.26 132.2V128.9C373.26 126.567 372.727 124.8 371.66 123.6C370.66 122.333 368.86 121.267 366.26 120.4L355.96 117C351.36 115.467 348.16 113.5 346.36 111.1C344.56 108.633 343.66 104.933 343.66 100V98.9C343.66 93.1 345.193 88.7333 348.26 85.8C351.393 82.8 356.327 81.3 363.06 81.3Z" fill="#1A1A1A"/>
<path d="M18.288 206.72C14.928 206.72 12.096 206.192 9.792 205.136C7.536 204.032 5.832 202.784 4.68 201.392C3.576 200 3.024 198.848 3.024 197.936C3.024 197.456 3.192 197.096 3.528 196.856C3.912 196.568 4.296 196.424 4.68 196.424H7.92C8.4 196.424 8.832 196.664 9.216 197.144C10.368 198.488 11.616 199.544 12.96 200.312C14.304 201.08 16.104 201.464 18.36 201.464C20.856 201.464 22.872 200.984 24.408 200.024C25.992 199.016 26.784 197.648 26.784 195.92C26.784 194.768 26.448 193.832 25.776 193.112C25.152 192.344 24.048 191.696 22.464 191.168C20.928 190.592 18.624 189.968 15.552 189.296C11.376 188.384 8.4 187.064 6.624 185.336C4.896 183.608 4.032 181.376 4.032 178.64C4.032 176.816 4.56 175.088 5.616 173.456C6.72 171.776 8.304 170.432 10.368 169.424C12.48 168.368 15 167.84 17.928 167.84C21 167.84 23.616 168.344 25.776 169.352C27.936 170.36 29.544 171.56 30.6 172.952C31.704 174.296 32.256 175.424 32.256 176.336C32.256 176.768 32.088 177.128 31.752 177.416C31.464 177.704 31.104 177.848 30.672 177.848H27.648C27.072 177.848 26.592 177.608 26.208 177.128C25.44 176.216 24.768 175.52 24.192 175.04C23.664 174.512 22.872 174.056 21.816 173.672C20.808 173.288 19.512 173.096 17.928 173.096C15.624 173.096 13.848 173.6 12.6 174.608C11.352 175.568 10.728 176.84 10.728 178.424C10.728 179.432 10.992 180.296 11.52 181.016C12.048 181.688 13.056 182.312 14.544 182.888C16.08 183.464 18.288 184.064 21.168 184.688C25.728 185.648 28.944 187.04 30.816 188.864C32.736 190.64 33.696 192.92 33.696 195.704C33.696 197.768 33.096 199.64 31.896 201.32C30.696 203 28.92 204.32 26.568 205.28C24.264 206.24 21.504 206.72 18.288 206.72ZM56.5768 206C48.9928 206 45.2008 201.776 45.2008 193.328V174.32H39.5848C39.1048 174.32 38.6968 174.176 38.3608 173.888C38.0728 173.552 37.9288 173.144 37.9288 172.664V170.216C37.9288 169.736 38.0728 169.352 38.3608 169.064C38.6968 168.728 39.1048 168.56 39.5848 168.56H45.2008V156.536C45.2008 156.056 45.3448 155.672 45.6328 155.384C45.9688 155.048 46.3768 154.88 46.8568 154.88H50.2408C50.7208 154.88 51.1048 155.048 51.3928 155.384C51.7288 155.672 51.8968 156.056 51.8968 156.536V168.56H60.8248C61.3048 168.56 61.6888 168.728 61.9768 169.064C62.3128 169.352 62.4808 169.736 62.4808 170.216V172.664C62.4808 173.144 62.3128 173.552 61.9768 173.888C61.6888 174.176 61.3048 174.32 60.8248 174.32H51.8968V192.824C51.8968 195.224 52.3048 197.048 53.1208 198.296C53.9368 199.496 55.2808 200.096 57.1528 200.096H61.5448C62.0248 200.096 62.4088 200.264 62.6968 200.6C63.0328 200.888 63.2008 201.272 63.2008 201.752V204.344C63.2008 204.824 63.0328 205.232 62.6968 205.568C62.4088 205.856 62.0248 206 61.5448 206H56.5768ZM85.4218 206.72C80.1418 206.72 76.0378 205.232 73.1098 202.256C70.2298 199.28 68.6938 195.32 68.5018 190.376L68.4298 187.28L68.5018 184.184C68.6938 179.288 70.2538 175.352 73.1818 172.376C76.1098 169.352 80.1898 167.84 85.4218 167.84C90.6538 167.84 94.7338 169.352 97.6618 172.376C100.59 175.352 102.15 179.288 102.342 184.184C102.39 184.712 102.414 185.744 102.414 187.28C102.414 188.816 102.39 189.848 102.342 190.376C102.15 195.32 100.59 199.28 97.6618 202.256C94.7818 205.232 90.7018 206.72 85.4218 206.72ZM85.4218 201.176C88.4458 201.176 90.8218 200.216 92.5498 198.296C94.3258 196.376 95.2858 193.616 95.4298 190.016C95.4778 189.536 95.5018 188.624 95.5018 187.28C95.5018 185.936 95.4778 185.024 95.4298 184.544C95.2858 180.944 94.3258 178.184 92.5498 176.264C90.8218 174.344 88.4458 173.384 85.4218 173.384C82.3978 173.384 79.9978 174.344 78.2218 176.264C76.4458 178.184 75.5098 180.944 75.4138 184.544L75.3418 187.28L75.4138 190.016C75.5098 193.616 76.4458 196.376 78.2218 198.296C79.9978 200.216 82.3978 201.176 85.4218 201.176ZM113.086 206C112.606 206 112.198 205.856 111.862 205.568C111.574 205.232 111.43 204.824 111.43 204.344V170.288C111.43 169.808 111.574 169.4 111.862 169.064C112.198 168.728 112.606 168.56 113.086 168.56H116.398C116.878 168.56 117.286 168.728 117.622 169.064C117.958 169.4 118.126 169.808 118.126 170.288V173.456C120.094 170.192 123.454 168.56 128.206 168.56H131.014C131.494 168.56 131.878 168.728 132.166 169.064C132.502 169.352 132.67 169.736 132.67 170.216V173.168C132.67 173.648 132.502 174.032 132.166 174.32C131.878 174.608 131.494 174.752 131.014 174.752H126.694C124.102 174.752 122.062 175.52 120.574 177.056C119.086 178.544 118.342 180.584 118.342 183.176V204.344C118.342 204.824 118.174 205.232 117.838 205.568C117.502 205.856 117.094 206 116.614 206H113.086ZM153.054 206.72C148.11 206.72 144.15 205.208 141.174 202.184C138.246 199.112 136.638 194.936 136.35 189.656L136.278 187.208L136.35 184.832C136.686 179.648 138.318 175.52 141.246 172.448C144.222 169.376 148.134 167.84 152.982 167.84C158.31 167.84 162.438 169.544 165.366 172.952C168.294 176.312 169.758 180.872 169.758 186.632V187.856C169.758 188.336 169.59 188.744 169.254 189.08C168.966 189.368 168.582 189.512 168.102 189.512H143.19V190.16C143.334 193.28 144.27 195.944 145.998 198.152C147.774 200.312 150.102 201.392 152.982 201.392C155.19 201.392 156.99 200.96 158.382 200.096C159.822 199.184 160.878 198.248 161.55 197.288C161.982 196.712 162.294 196.376 162.486 196.28C162.726 196.136 163.134 196.064 163.71 196.064H167.238C167.67 196.064 168.03 196.184 168.318 196.424C168.606 196.664 168.75 197 168.75 197.432C168.75 198.488 168.078 199.76 166.734 201.248C165.438 202.736 163.59 204.032 161.19 205.136C158.838 206.192 156.126 206.72 153.054 206.72ZM162.918 184.544V184.328C162.918 181.016 162.006 178.328 160.182 176.264C158.406 174.152 156.006 173.096 152.982 173.096C149.958 173.096 147.558 174.152 145.782 176.264C144.054 178.328 143.19 181.016 143.19 184.328V184.544H162.918Z" fill="#1A1A1A"/>
</svg>
